<svg xmlns="http://www.w3.org/2000/svg" width="256" height="256" viewBox="0 0 256 256"><g fill="none" stroke="#bd91d7" opacity="0.282"><ellipse cx="128" cy="219" rx="46.09" ry="8.73" stroke-width="3"/><ellipse cx="128" cy="219" rx="37.09" ry="5.73" stroke-width="1.5"/></g><g opacity="0.859"><ellipse cx="128" cy="225" rx="61" ry="7" fill="#b1a1c6" opacity=".18"/><g stroke-linecap="round" stroke-linejoin="round"><path d="M94 178Q55 160 62 189Q66 199 51 201Q79 217 91 193L103 188" fill="#bca7e5" stroke="#665775" stroke-width="3"/><path d="M94 183L91 212Q91 224 103 223Q113 223 113 212L115 186" fill="#eee3d6" stroke="#665775" stroke-width="3"/><path d="M141 186L141 213Q140 224 152 223Q164 223 162 211L158 181" fill="#eee3d6" stroke="#665775" stroke-width="3"/><path d="M91 213Q102 217 113 212L113 221Q101 228 91 222Z" fill="#bca7e5" stroke="#665775" stroke-width="3"/><path d="M141 213Q151 217 162 212L163 220Q151 228 141 222Z" fill="#bca7e5" stroke="#665775" stroke-width="3"/><path d="M97 151Q85 162 89 186Q94 204 127 202Q159 202 165 183Q169 165 155 152" fill="#fff6df" stroke="#665775" stroke-width="3"/><ellipse cx="128" cy="184" rx="21" ry="12" fill="#fffdf4"/><path d="M98 158Q88 157 84 169L79 179Q78 188 86 189Q94 190 99 179L105 167" fill="#fff6df" stroke="#665775" stroke-width="3"/><path d="M79 181Q86 185 94 183" fill="none" stroke="#b9a8d7" stroke-width="4"/><path d="M155 159Q168 159 171 171L176 182Q176 191 168 191Q160 191 156 179L149 169" fill="#fff6df" stroke="#665775" stroke-width="3"/><path d="M163 186Q169 184 174 181" fill="none" stroke="#b9a8d7" stroke-width="4"/><path d="M132 161L139 182L151 177L145 158Z" fill="#c98fa5" stroke="#9c697f" stroke-width="2"/><path d="M95 151Q127 161 159 150L159 160Q129 175 96 161Z" fill="#d69bb3" stroke="#9c697f" stroke-width="2"/><path d="M101 157Q118 163 131 163" fill="none" stroke="#efd1dd" stroke-width="2"/><path d="M139 157L142 163L148 165L142 168L139 174L136 168L130 165L136 163Z" fill="#f2cb7b" stroke="#a98a5c" stroke-width="1.5"/><path d="M87 79L82 40Q82 28 94 37L111 64" fill="#fff6df" stroke="#665775" stroke-width="3"/><path d="M140 62L154 32Q161 23 167 37L171 81" fill="#fff6df" stroke="#665775" stroke-width="3"/><path d="M90.0 45L99 65M160.0 40L157 65" fill="none" stroke="#e8b5ba" stroke-width="6"/><path d="M76 103Q75 66 121 61Q168 55 179 95L184 124Q184 152 148 159L106 156Q71 148 76 103Z" fill="#fff9e9" stroke="#665775" stroke-width="3"/><path d="M76 105Q59 89 75 76Q83 54 108 59Q130 41 152 61Q180 60 182 91Q170 112 159 86Q145 112 122 101Q135 88 132 76Q112 102 94 91Q96 108 76 105Z" fill="#bca7e5" stroke="#665775" stroke-width="3"/><path d="M84 83Q92 72 104 73M145 71Q161 68 170 84" fill="none" stroke="#d2c6e9" stroke-width="3"/><ellipse cx="94" cy="131" rx="11" ry="6" fill="#f1bec0" opacity=".8"/><ellipse cx="164" cy="131" rx="11" ry="6" fill="#f1bec0" opacity=".8"/><path d="M107 118v5M153 118v5" fill="none" stroke="#665775" stroke-width="5"/><path d="M123 141Q130 148 138 140" fill="none" stroke="#665775" stroke-width="2.5"/><g transform="translate(166 81) rotate(15)" stroke="#ad7893" stroke-width="1.7" fill="#edb4ca"><path d="M-2 0Q-24-16-23-3L-22 8Q-17 16-2 5M3 0Q25-16 24-2L22 10Q17 16 3 5" fill="#edb4ca" stroke="#ad7893" stroke-width="1.7"/><path d="M-3 4L-8 19L-1 16L3 20L5 5M4 4L8 18L13 15L17 17L10 2" fill="#edb4ca" stroke="#ad7893" stroke-width="1.7"/><rect x="-4" y="-3" width="9" height="11" rx="3" fill="#f5cbd9"/><path d="M-17 1L-7 3M17 1L8 3" fill="none" stroke="#ffe2ed" stroke-width="2"/></g></g></g><path d="M67.91 164.27Q128 188.27 188.09 156.27" fill="none" stroke="#bd91d7" stroke-width="2" stroke-linecap="round" stroke-dasharray="11.91 9" opacity="0.197"/><path d="M173.40 204.82Q173.96 204.82 173.96 203.80Q173.96 204.82 174.52 204.82Q173.96 204.82 173.96 205.83Q173.96 204.82 173.40 204.82Z" fill="#bd91d7" stroke="#bd91d7" stroke-width="0.7" opacity="0.282"/><path d="M82.09 187.60Q82.94 187.60 82.94 186.07Q82.94 187.60 83.78 187.60Q82.94 187.60 82.94 189.12Q82.94 187.60 82.09 187.60Z" fill="#ffe1ee" stroke="#bd91d7" stroke-width="0.7" opacity="0.282"/><path d="M135.96 170.37Q137.09 170.37 137.09 168.35Q137.09 170.37 138.21 170.37Q137.09 170.37 137.09 172.40Q137.09 170.37 135.96 170.37Z" fill="#bd91d7" stroke="#bd91d7" stroke-width="0.7" opacity="0.282"/><path d="M154.02 153.15Q154.58 153.15 154.58 152.14Q154.58 153.15 155.14 153.15Q154.58 153.15 154.58 154.17Q154.58 153.15 154.02 153.15Z" fill="#ffe1ee" stroke="#bd91d7" stroke-width="0.7" opacity="0.282"/><path d="M69.48 135.93Q70.32 135.93 70.32 134.41Q70.32 135.93 71.17 135.93Q70.32 135.93 70.32 137.45Q70.32 135.93 69.48 135.93Z" fill="#bd91d7" stroke="#bd91d7" stroke-width="0.7" opacity="0.282"/><path d="M188.98 118.71Q190.11 118.71 190.11 116.68Q190.11 118.71 191.23 118.71Q190.11 118.71 190.11 120.74Q190.11 118.71 188.98 118.71Z" fill="#ffe1ee" stroke="#bd91d7" stroke-width="0.7" opacity="0.282"/><path d="M113.94 101.48Q114.51 101.48 114.51 100.47Q114.51 101.48 115.07 101.48Q114.51 101.48 114.51 102.50Q114.51 101.48 113.94 101.48Z" fill="#bd91d7" stroke="#bd91d7" stroke-width="0.7" opacity="0.282"/><path d="M101.77 84.26Q102.61 84.26 102.61 82.74Q102.61 84.26 103.46 84.26Q102.61 84.26 102.61 85.78Q102.61 84.26 101.77 84.26Z" fill="#ffe1ee" stroke="#bd91d7" stroke-width="0.7" opacity="0.282"/><path d="M193.65 67.04Q194.77 67.04 194.77 65.01Q194.77 67.04 195.90 67.04Q194.77 67.04 194.77 69.07Q194.77 67.04 193.65 67.04Z" fill="#bd91d7" stroke="#bd91d7" stroke-width="0.7" opacity="0.282"/><path d="M84.37 49.82Q84.94 49.82 84.94 48.80Q84.94 49.82 85.50 49.82Q84.94 49.82 84.94 50.83Q84.94 49.82 84.37 49.82Z" fill="#ffe1ee" stroke="#bd91d7" stroke-width="0.7" opacity="0.282"/></svg>