<svg xmlns="http://www.w3.org/2000/svg" width="240" height="240" viewBox="0 0 240 240"><defs>
<linearGradient id="shell" x1="0" y1="0" x2=".7" y2="1" gradientUnits="objectBoundingBox"><stop stop-color="#fffdf4"/><stop offset=".65" stop-color="#f4f1e8"/><stop offset="1" stop-color="#d9e0dc"/></linearGradient>
<linearGradient id="mint" x1="0" y1="0" x2="1" y2="1"><stop stop-color="#d3e7dc"/><stop offset="1" stop-color="#91bdb5"/></linearGradient>
<linearGradient id="screen" x1="0" y1="0" x2=".65" y2="1"><stop stop-color="#596d7b"/><stop offset=".55" stop-color="#405362"/><stop offset="1" stop-color="#344552"/></linearGradient>
<linearGradient id="gloss" x1="0" y1="0" x2="1" y2="1"><stop stop-color="#cce6df" stop-opacity=".2"/><stop offset="1" stop-color="#cce6df" stop-opacity="0"/></linearGradient>
</defs><ellipse cx="120" cy="222" rx="56" ry="6" fill="#7c9995" opacity=".17"/><g stroke-linecap="round" stroke-linejoin="round"><path d="M96 183Q95 195 95 208L109 208Q108 195 108 183" fill="#c2d5ce" stroke="#596c78" stroke-width="2.6"/><path d="M94 203Q102 199 110 204L113 213Q114 219 106 219H90Q84 217 87 211Z" fill="url(#shell)" stroke="#596c78" stroke-width="2.6"/><path d="M89 214Q102 217 111 213" fill="none" stroke="#a4bcb3" stroke-width="2"/><path d="M134 183Q133 195 133 208L147 208Q146 195 146 183" fill="#c2d5ce" stroke="#596c78" stroke-width="2.6"/><path d="M132 203Q140 199 148 204L151 213Q152 219 144 219H128Q122 217 125 211Z" fill="url(#shell)" stroke="#596c78" stroke-width="2.6"/><path d="M127 214Q140 217 149 213" fill="none" stroke="#a4bcb3" stroke-width="2"/><path d="M103 133V149Q120 157 138 149V133" fill="#aac7bf" stroke="#596c78" stroke-width="2.6"/><path d="M93 145Q120 134 148 145Q163 161 157 184Q154 201 121 202Q87 201 83 183Q78 160 93 145Z" fill="url(#shell)" stroke="#596c78" stroke-width="2.6"/><path d="M88 173Q87 193 105 195" fill="none" stroke="#ffffff" stroke-width="3"/><path d="M148 174Q151 186 143 190" fill="none" stroke="#c7d6cf" stroke-width="2"/><rect x="100" y="155" width="40" height="29" rx="11" fill="#e6ede4" stroke="#afc4b8" stroke-width="1.5"/><path d="M113 167Q107 160 111 158Q117 155 121 162Q124 156 129 159Q136 165 121 176Z" fill="#b2cfc0" stroke="#8fb1a5" stroke-width="1.3"/><path d="M112 185h16" stroke="#c5d4cb" stroke-width="1.8"/><circle cx="113" cy="191" r="1.5" fill="#a3bcaf" stroke="none" stroke-width="2"/><circle cx="120" cy="191" r="1.5" fill="#a3bcaf" stroke="none" stroke-width="2"/><circle cx="127" cy="191" r="1.5" fill="#a3bcaf" stroke="none" stroke-width="2"/><path d="M86 158Q72 170.025 68 175.05" fill="none" stroke="#596c78" stroke-width="13"/><path d="M86 158Q72 170.025 68 175.05" fill="none" stroke="#d6e0d8" stroke-width="8"/><circle cx="86" cy="158" r="6" fill="url(#mint)" stroke="#596c78" stroke-width="2"/><path d="M156 158Q168 160.225 169.45 155.45" fill="none" stroke="#596c78" stroke-width="13"/><path d="M156 158Q168 160.225 169.45 155.45" fill="none" stroke="#d6e0d8" stroke-width="8"/><circle cx="156" cy="158" r="6" fill="url(#mint)" stroke="#596c78" stroke-width="2"/><path d="M120 49Q117 35 127.9 35.15" fill="none" stroke="#596c78" stroke-width="4"/><path d="M120 47Q119 36 127.9 35.15" fill="none" stroke="#bacfc2" stroke-width="2"/><circle cx="127.9" cy="31.15" r="7" fill="#b5d6c2" stroke="#596c78" stroke-width="2"/><circle cx="125.9" cy="29.15" r="2" fill="#f5fff1" stroke="none" stroke-width="2"/><rect x="42" y="80" width="20" height="43" rx="9" fill="url(#mint)" stroke="#596c78" stroke-width="2.5"/><path d="M47 89V111" fill="none" stroke="#e6f1e7" stroke-width="2"/><path d="M57 90V112" fill="none" stroke="#82a9a2" stroke-width="1.5"/><rect x="178" y="80" width="20" height="43" rx="9" fill="url(#mint)" stroke="#596c78" stroke-width="2.5"/><path d="M183 89V111" fill="none" stroke="#e6f1e7" stroke-width="2"/><path d="M193 90V112" fill="none" stroke="#82a9a2" stroke-width="1.5"/><path d="M57 80Q59 49 89 47Q120 43 151 48Q183 51 184 82L182 115Q179 143 149 148Q119 152 88 147Q59 143 56 116Z" fill="url(#shell)" stroke="#596c78" stroke-width="2.8"/><path d="M67 78Q70 56 94 55L146 55" fill="none" stroke="#ffffff" stroke-width="3"/><path d="M71 132Q91 144 122 142" fill="none" stroke="#cdd9d0" stroke-width="2"/><rect x="66" y="62" width="108" height="69" rx="24" fill="#91a9ad" stroke="#819899" stroke-width="1.4"/><rect x="70" y="66" width="100" height="61" rx="21" fill="url(#screen)" stroke="#526574" stroke-width="1.5"/><path d="M75 86Q76 71 91 71H152Q127 81 78 94Z" fill="url(#gloss)" stroke="none" stroke-width="2.6"/><path d="M80 78Q84 72 93 73" fill="none" stroke="#d3e7e3" stroke-width="2"/><path d="M153 117h5" fill="none" stroke="#9ac5b6" stroke-width="1.5"/><path d="M91 89Q98 90 104 85M135 85Q142 90 149 89" fill="none" stroke="#d4f1dc" stroke-width="2.5"/><ellipse cx="98" cy="98" rx="3.8" ry="5" fill="#d4f1dc"/><ellipse cx="142" cy="98" rx="3.8" ry="5" fill="#d4f1dc"/><path d="M148 104Q155 112 150 115Q143 116 148 104Z" fill="#add5e3" stroke="none" stroke-width="2.6"/><ellipse cx="85" cy="109" rx="6" ry="2.5" fill="#dcacaa" opacity=".52"/><ellipse cx="155" cy="109" rx="6" ry="2.5" fill="#dcacaa" opacity=".52"/><path d="M114 113Q120 108 126 113" fill="none" stroke="#d4f1dc" stroke-width="2"/><path d="M61 170.05Q55 175.05 57 182.05Q62 190.05 71 187.05Q80 184.05 77 176.05Q77 170.05 72 169.05Z" fill="url(#mint)" stroke="#596c78" stroke-width="2.3"/><path d="M61 175.05Q63 171.05 67 172.05" fill="none" stroke="#edf6e9" stroke-width="2"/><path d="M73 177.05L73 181.05" fill="none" stroke="#8cb2a9" stroke-width="1.4"/><path d="M162.45 150.45Q156.45 155.45 158.45 162.45Q163.45 170.45 172.45 167.45Q181.45 164.45 178.45 156.45Q178.45 150.45 173.45 149.45Z" fill="url(#mint)" stroke="#596c78" stroke-width="2.3"/><path d="M162.45 155.45Q164.45 151.45 168.45 152.45" fill="none" stroke="#edf6e9" stroke-width="2"/><path d="M174.45 157.45L174.45 161.45" fill="none" stroke="#8cb2a9" stroke-width="1.4"/></g></svg>